<?xml version="1.0" encoding="utf-8"?>
<!-- Generator: Adobe Illustrator 25.0.0, SVG Export Plug-In . SVG Version: 6.00 Build 0)  -->
<svg version="1.1" id="Capa_1" xmlns="http://www.w3.org/2000/svg" xmlns:xlink="http://www.w3.org/1999/xlink" x="0px" y="0px"
	 viewBox="0 0 390 100" style="enable-background:new 0 0 390 100;" xml:space="preserve">
<style type="text/css">
	.st0{fill-rule:evenodd;clip-rule:evenodd;fill:#FFFFFF;}
</style>
<g>
	<g>
		<path class="st0" d="M16.9,78.1l6.3-17l6,17H16.9z M35.3,95.3H41L26.1,54.3h-5.7L4.8,95.3h5.8l4.6-12.5h15.6L35.3,95.3z
			 M53.5,81.1c-5.3-1.2-10.8-2.4-10.8-8.8c0-5.6,4.8-9.2,12-9.2c4.7,0,9.1,1.7,11.3,6l-4.8,2c-0.4-1.1-2.9-4-7.1-4
			c-4.1,0-6.1,2.4-6.1,4.5c0,2.9,3.9,4.2,7.2,4.8C62,77.9,68,79.6,68,86.1c0,5-4.5,9.8-13,9.8c-6.3,0-10.8-2.1-12.9-6.5l5.5-1
			c1.4,2.4,3.9,3.5,7.6,3.5c4.6,0,7.3-1.8,7.3-5.1C62.5,83.2,58.1,82.1,53.5,81.1L53.5,81.1z M79.5,64.1h5.7v4.4h-5.7v17.7
			c0,3.7,0,5.2,2.2,5.2c1,0,2.4-0.4,3.4-0.7V95c-0.9,0.1-3.1,0.5-5.1,0.5c-6,0-6-2.9-6-7V68.4h-4.9v-4.4h4.9v-7.4l5.4-2.2V64.1z
			 M95.1,64.1v5.6c3-5.9,8.6-6,10.7-6.1V69c-5.1,0-7.6,1.1-9.3,3.8c-1.4,2.3-1.3,5.4-1.3,8.1v14.3h-5.2V64.1H95.1z M166.1,54.3v5.1
			l-23.2,30.9h23.8v4.9h-30.1v-5.3l23.3-30.6h-23.3v-5L166.1,54.3z M204.6,64.3v4.5c2.9-5.1,7.9-5.5,9.7-5.5c4,0,8.7,2,10.2,7.1
			c0.5,1.8,0.5,3.7,0.5,6.4v18.4h-5.2V77.7c0-3.2,0-4.1-0.3-5.1c-0.9-3-3.8-4.3-6.7-4.3c-2.3,0-4.3,0.7-5.9,2.4
			c-2.3,2.3-2.3,4.7-2.3,7v17.7h-5.2V64.3H204.6z M285.2,89.8c-1.9,3.1-5.5,6.1-11.9,6.1c-11,0-15.2-8.5-15.2-16.1
			c0-8.8,4.8-16.8,14.7-16.8c3.9,0,9.3,1.2,12.3,6.2l-4.9,2c-0.9-2-2.9-4.4-7.3-4.4c-8.6,0-9.1,9.8-9.1,12.5
			c0,10.3,5.9,12.5,9.4,12.5c4,0,6.1-1.9,7.2-4.1L285.2,89.8z M174.2,76.5h16.5c-0.5-8.1-5.2-9.5-8.3-9.5
			C177.9,67,174.8,70.3,174.2,76.5L174.2,76.5z M195,89.4c-1.8,3-5.2,6.5-12,6.5c-9.2,0-14.5-6.2-14.5-16.7
			c0-11.7,7.7-16.2,14.3-16.2c5.7,0,11.2,3.2,13,11c0.6,2.6,0.6,5,0.6,6.3h-22.4c-0.1,5.2,2,11.8,9.4,11.7c3-0.1,5.1-1.4,6.5-3.5
			L195,89.4z M233.6,76.5h16.5c-0.5-8.1-5.2-9.5-8.3-9.5C237.3,67,234.2,70.3,233.6,76.5z M254.4,89.4c-1.8,3-5.2,6.5-12,6.5
			c-9.2,0-14.5-6.2-14.5-16.7c0-11.7,7.7-16.2,14.3-16.2c5.7,0,11.2,3.2,13,11c0.6,2.6,0.6,5,0.6,6.3h-22.4
			c-0.1,5.2,2.1,11.8,9.4,11.7c3-0.1,5.1-1.4,6.5-3.5L254.4,89.4z M313.7,95.3l-5.4,0c0,0-0.5-2.2-0.6-4.6c-1.6,1.6-4.5,5-10.4,5
			c-6,0-10.5-3.6-10.5-8.8c0-1.6,0.5-3.3,1.4-4.7c1.8-2.6,5.1-4.7,14.4-5.5l4.9-0.4v-0.8c0-3.2,0-8.6-6.9-8.6c-4.4,0-5.9,2.1-6.4,4
			l-4.8-2c0.1-0.2,0.2-0.3,0.3-0.5c1.8-3.4,5.5-5.5,10.7-5.5c2.9,0,6.6,0.7,9.1,2.6c3.5,2.6,3.4,7.8,3.4,7.8l0.2,16
			C312.9,89.4,313.1,94,313.7,95.3L313.7,95.3z M306.6,86.7c0.8-1.7,0.9-2.4,0.9-7c-2,0.3-4.8,0.7-8.1,1.4c-5.8,1.2-6.8,3.4-6.8,5.6
			c0,2.5,2,4.6,5.9,4.6C302,91.4,305.1,89.9,306.6,86.7L306.6,86.7z M132.9,95.3l-5.4,0c0,0-0.5-2.2-0.6-4.6c-1.6,1.6-4.5,5-10.4,5
			c-6.1,0-10.5-3.6-10.5-8.8c0-1.6,0.5-3.3,1.4-4.7c1.8-2.6,5.1-4.7,14.3-5.5l4.9-0.4v-0.8c0-3.2,0-8.6-6.9-8.6
			c-4.4,0-5.9,2.1-6.4,4l-4.8-2c0.1-0.2,0.2-0.3,0.3-0.5c1.8-3.4,5.5-5.5,10.7-5.5c2.9,0,6.6,0.7,9.1,2.6c3.5,2.6,3.4,7.8,3.4,7.8
			l0.2,16C132.1,89.4,132.2,94,132.9,95.3L132.9,95.3z M125.8,86.7c0.8-1.7,0.9-2.4,0.9-7c-2,0.3-4.8,0.7-8.1,1.4
			c-5.8,1.2-6.8,3.4-6.8,5.6c0,2.5,2,4.6,5.8,4.6C121.2,91.4,124.3,89.9,125.8,86.7L125.8,86.7z"/>
	</g>
	<path class="st0" d="M385.1,52.2c0-0.2,0-0.4-0.1-0.6c-0.1-0.4-0.2-0.8-0.3-1.1c-0.2-0.4-0.3-0.8-0.6-1.1c-0.2-0.4-0.5-0.8-0.8-1.1
		c-0.2-0.2-0.3-0.4-0.5-0.6c-0.2-0.2-0.4-0.4-0.7-0.6c-0.5-0.4-1.1-0.9-1.6-1.2c-1.3-0.8-2.5-1.6-3.9-2.2c-1.6-0.7-3.2-1.6-4.9-2.2
		l-11.4-4c0-2.2,0.1-4.4,0-6.5c-0.1-3.2-0.2-6.5-0.5-9.7c-0.2-2.2-0.4-4.5-0.8-6.7c-0.3-1.7-0.7-3.4-1.1-5.1
		c-0.1-0.4-0.2-0.8-0.3-1.2c-0.2-0.7-0.5-1.3-0.8-1.9c-0.3-0.5-0.6-1-0.9-1.4c-0.4-0.5-0.9-1-1.4-1.4c-0.3-0.2-0.6-0.4-0.9-0.5
		c-0.3-0.1-0.6-0.2-0.8-0.3c-0.4-0.1-0.8-0.2-1.3-0.2c-1,0-2,0.1-3,0.4c-0.4,0.1-0.7,0.3-1.1,0.4c-0.8,0.4-1.5,0.9-2.2,1.4
		c-0.6,0.5-1.3,0.9-1.9,1.5c-2.4,2.2-4.7,4.5-7,6.9c-1.2,1.2-2.4,2.5-3.5,3.9c-4.4,5.3-8.8,10.7-13,16.2c-1.9,2.4-3.6,5-5.3,7.5
		c-0.4,0.6-0.8,1.3-1.2,2c-0.6,1.2-1.3,2.4-1.9,3.6c-0.1,0.3-0.3,0.6-0.4,1c-0.1,0.3-0.2,0.6-0.3,1c-0.2,0.6-0.2,1.2-0.2,1.8
		c0,0.1,0,0.3,0.1,0.4c0.1,0.1,0.1,0.3,0.2,0.4c0.2,0.3,0.4,0.6,0.6,0.8c0.3,0.3,0.6,0.6,0.9,0.8c0.3,0.3,0.6,0.5,1,0.7
		c0.6,0.4,1.2,0.8,1.8,1.1c0.3,0.2,0.6,0.3,0.8,0.4c0.1,0-0.2-0.1-0.3-0.2c0,0,0,0,0,0c0,0,0,0,0,0l0.5,0.2c3.8,2,7.5,3.9,11.3,5.9
		c3.8,2,7.5,4,11.3,6.1l8.4,4.7c-2.9,2.2-5.9,4.3-8.7,6.6c-1.1,0.9-2.1,1.8-3.1,2.8c-0.8,0.8-1.6,1.6-2.3,2.5
		c-0.6,0.7-1.1,1.4-1.6,2.2c-0.4,0.6-0.7,1.2-1,1.9c-0.2,0.5-0.4,1-0.6,1.5c-0.1,0.4-0.2,0.7-0.3,1.1c0,0.2,0,0.5-0.1,0.7
		c0,0.1,0,0.2,0,0.2c0,0.2,0,0.4,0,0.6c0,0.7,0.2,1.4,0.6,2.1c0.1,0.1,0.2,0.3,0.3,0.4c0.2,0.3,0.4,0.5,0.6,0.8
		c0.2,0.2,0.5,0.4,0.7,0.6c0.3,0.2,0.5,0.4,0.8,0.5c0.3,0.2,0.6,0.3,0.9,0.4c0.3,0.1,0.6,0.3,0.9,0.3c1.2,0.3,2.3,0.5,3.5,0.7
		c0.6,0.1,1.2,0.1,1.8,0.1c2-0.1,4-0.4,6-0.7c2.3-0.4,4.7-0.9,7-1.4c2.7-0.6,5.5-1.2,8.2-1.9c1.9-0.5,3.9-0.9,5.7-1.7
		c1.4-0.6,2.9-1.1,4.3-1.8c0.3-0.1,0.6-0.3,0.9-0.5c0.3-0.2,0.5-0.3,0.8-0.5c0.2-0.2,0.4-0.3,0.7-0.5c0.2-0.2,0.3-0.3,0.5-0.5
		c0.2-0.3,0.4-0.7,0.5-1c0.1-0.3,0.1-0.7,0-1c-0.1-0.3-0.2-0.6-0.3-0.9c-0.2-0.3-0.3-0.5-0.6-0.8c-0.4-0.4-0.8-0.8-1.3-1.1
		c-0.2-0.1-0.4-0.3-0.6-0.4c-1.5-0.9-3-1.8-4.5-2.7l-6.3-3.7c3.8-2.6,7.7-5.1,11.4-7.8c1.6-1.1,3.2-2.3,4.7-3.5
		c1.3-1.1,2.6-2.2,3.8-3.4c0.6-0.6,1.1-1.2,1.6-1.8c0.2-0.3,0.5-0.6,0.7-0.9c0.2-0.3,0.4-0.5,0.5-0.8c0.5-1,1-2,1.4-3
		c0.2-0.4,0.2-0.9,0.3-1.3c0-0.2,0.1-0.4,0.1-0.6c0-0.2,0-0.4,0-0.6C385.2,52.6,385.1,52.4,385.1,52.2L385.1,52.2z M338.2,26.5
		c2.1-2.2,4.3-4.4,6.4-6.6c0.4-0.4,0.8-0.8,1.3-1.1c0.1-0.1,0.3-0.3,0.5-0.4c0.1-0.1,0.2-0.2,0.4-0.3c0.1-0.1,0.2-0.1,0.3-0.1
		c0.1,0,0.2-0.1,0.3-0.1c0.1,0,0.2,0,0.4,0c0.1,0,0.3,0.1,0.4,0.1c0.1,0.1,0.2,0.2,0.3,0.3c0.1,0.1,0.1,0.1,0.2,0.2
		c0.1,0.1,0.1,0.2,0.2,0.3c0.1,0.3,0.2,0.5,0.3,0.8c0.1,0.4,0.2,0.8,0.2,1.2c0.2,1,0.3,2,0.4,3c0.1,1.3,0.3,2.6,0.4,3.9l0.6,6.9
		l-7.7-1.8l-7.2-1.2l-1.7-0.1l-0.6,0C335,29.9,336.6,28.2,338.2,26.5z M333.4,36.1L333.4,36.1L333.4,36.1l0.1-0.1l0.1,0l0.3,0.1
		l0.7,0.3l1,0.4c2.5,1.1,4.9,2.1,7.4,3.1c1.6,0.7,3.3,1.4,4.9,2.1l3.2,1.4l0.3,0.1c0.2,2.5,0.4,5.1,0.5,7.6c0.1,2,0.1,4,0.2,6
		c0,0.3,0,0.5,0,0.8c0,0.1,0,0.3,0,0.4c0,0.1-0.1,0.3-0.1,0.4c0,0.1-0.1,0.3-0.2,0.4c-0.1,0.1-0.1,0.2-0.2,0.3
		c0,0.1-0.1,0.1-0.2,0.1c-0.1,0-0.1,0.1-0.2,0.1c-0.1,0.1-0.3,0.1-0.5,0.2c-0.2,0-0.4,0-0.6,0c-0.1,0-0.2,0-0.3-0.1
		c-0.1,0-0.2-0.1-0.4-0.1c-0.3-0.1-0.5-0.2-0.7-0.4c-0.3-0.2-0.5-0.3-0.8-0.5c-0.3-0.2-0.5-0.4-0.8-0.6c-0.3-0.2-0.6-0.5-0.8-0.8
		c-0.6-0.6-1.1-1.2-1.6-1.8c-0.9-1.1-1.9-2.3-2.7-3.5c-1.1-1.7-2.3-3.4-3.4-5.1c-0.7-1-1.3-2-1.9-3.1l-2.5-4.9l-0.5-1.6l-0.1-0.5
		l-0.1-0.4l0-0.3L333.4,36.1z M360.8,79.7c0.7,0.4,1.3,0.8,2,1.3c0.9,0.6,1.7,1.1,2.5,1.7c0.6,0.4,1.2,0.9,1.7,1.4
		c0.2,0.2,0.5,0.4,0.7,0.7c0.2,0.2,0.3,0.4,0.5,0.6c0,0,0,0,0,0c0,0,0,0.1,0,0.1c0,0,0,0,0,0.1c0,0,0,0-0.1,0.1c0,0-0.1,0-0.1,0
		c-0.1,0-0.1,0-0.2,0c-3.3,0.2-6.5,0.5-9.8,0.7l-12.7,1l-0.4,0l0.2-0.2l0.8-0.7c1.7-1.2,3.3-2.5,5-3.7l7.2-4.9L360.8,79.7
		L360.8,79.7z M370.6,54.6c-0.1,0.3-0.2,0.5-0.4,0.7c-0.2,0.3-0.4,0.5-0.7,0.7c-0.5,0.5-1.1,1-1.6,1.4c-2,1.4-4,2.9-6.1,4.3
		c-1.4,1-2.9,1.9-4.3,2.8l-8.4,5.4l-3.6-2l-15.2-8.7c-3.4-2-6.9-4.1-10.3-6.1c-0.6-0.4-1.2-0.8-1.9-1.3c-0.2-0.1-0.4-0.3-0.6-0.4
		c-0.1,0-0.1-0.1-0.2-0.1c-0.1-0.1-0.3-0.2-0.4-0.4c-0.1-0.2-0.3-0.4-0.4-0.6c0-0.1-0.1-0.2-0.1-0.3c0-0.1,0-0.2,0-0.4
		c0-0.3,0.1-0.5,0.3-0.8c0.3-0.6,0.7-1.1,1.2-1.5c2-2,3.9-4,5.9-6l5.3-5.4l0.3,0.9l0.6,1.5l0,0.1c1.4,2.4,2.7,4.9,4.2,7.3
		c1.7,2.7,3.5,5.4,5.4,8c0.9,1.2,1.8,2.5,2.7,3.6c0.8,1,1.7,2,2.6,3c0.8,0.8,1.7,1.6,2.6,2.3c0.4,0.4,0.9,0.6,1.4,0.9
		c0.5,0.3,1,0.5,1.5,0.6c0.5,0.1,0.9,0.2,1.4,0.3c0.6,0.1,1.2,0,1.7-0.2c0.2,0,0.3-0.1,0.5-0.2c0.1-0.1,0.3-0.1,0.4-0.2
		c0.1-0.1,0.3-0.2,0.4-0.2c0.2-0.2,0.4-0.3,0.6-0.5c0.2-0.2,0.3-0.3,0.5-0.5c0.2-0.2,0.3-0.5,0.5-0.7c0.4-0.7,0.7-1.4,1-2.1
		c0.3-0.8,0.5-1.6,0.7-2.4c0.3-1.1,0.6-2.2,0.7-3.4l0.7-6.6c1.6,0.7,3.2,1.4,4.7,2.2c1.5,0.8,2.9,1.7,4.4,2.5
		c0.2,0.1,0.3,0.2,0.5,0.3c0.2,0.2,0.4,0.4,0.6,0.6c0.2,0.2,0.4,0.5,0.5,0.7c0.1,0.1,0.1,0.3,0.1,0.4c0,0.1,0,0.1,0,0.2
		C370.6,54.5,370.6,54.6,370.6,54.6L370.6,54.6z"/>
</g>
</svg>
