<?xml version="1.0" encoding="utf-8"?>
<!-- Generator: Adobe Illustrator 25.0.0, SVG Export Plug-In . SVG Version: 6.00 Build 0)  -->
<svg version="1.1" id="Capa_1" xmlns="http://www.w3.org/2000/svg" xmlns:xlink="http://www.w3.org/1999/xlink" x="0px" y="0px"
	 viewBox="0 0 420 100" style="enable-background:new 0 0 420 100;" xml:space="preserve">
<style type="text/css">
	.st0{fill-rule:evenodd;clip-rule:evenodd;fill:#FFFFFF;}
</style>
<g>
	<path class="st0" d="M385.7,91.7h-5.9c-1.4,0-2.1,1-2.1,3c0,1.8,0.7,2.9,2.1,2.9h22.9c1.5,0,2.2-1,2.2-2.9c0-1.9-0.7-3-2.2-3H385.7
		z"/>
	<path class="st0" d="M350.9,91.7H345c-1.4,0-2.2,1-2.2,3c0,1.8,0.8,2.9,2.2,2.9h22.8c1.4,0,2.2-1,2.2-2.9c0-1.9-0.7-3-2.2-3H350.9z
		"/>
	<path class="st0" d="M317.9,91.7H312c-1.4,0-2.1,1-2.1,3c0,1.8,0.7,2.9,2.1,2.9h22.8c1.5,0,2.2-1,2.2-2.9c0-1.9-0.7-3-2.2-3H317.9z
		"/>
	<path class="st0" d="M283,91.7h-5.9c-1.5,0-2.2,1-2.2,3c0,1.8,0.7,2.9,2.2,2.9h22.8c1.5,0,2.2-1,2.2-2.9c0-1.9-0.7-3-2.2-3H283z"/>
	<path class="st0" d="M248.2,91.7h-5.9c-1.4,0-2.2,1-2.2,3c0,1.8,0.7,2.9,2.2,2.9H265c1.4,0,2.2-1,2.2-2.9c0-1.9-0.7-3-2.2-3H248.2z
		"/>
	<path class="st0" d="M215.2,91.7h-5.9c-1.5,0-2.2,1-2.2,3c0,1.8,0.7,2.9,2.2,2.9h22.8c1.5,0,2.2-1,2.2-2.9c0-1.9-0.7-3-2.2-3H215.2
		z"/>
	<path class="st0" d="M180.3,91.7h-5.9c-1.4,0-2.2,1-2.2,3c0,1.8,0.7,2.9,2.2,2.9h22.8c1.5,0,2.2-1,2.2-2.9c0-1.9-0.7-3-2.2-3H180.3
		z"/>
	<path class="st0" d="M145.4,91.7h-5.9c-1.5,0-2.2,1-2.2,3c0,1.8,0.7,2.9,2.2,2.9h22.9c1.4,0,2.1-1,2.1-2.9c0-1.9-0.7-3-2.1-3H145.4
		z"/>
	<path class="st0" d="M112.5,91.7h-5.9c-1.4,0-2.2,1-2.2,3c0,1.8,0.7,2.9,2.2,2.9h22.8c1.4,0,2.2-1,2.2-2.9c0-1.9-0.7-3-2.2-3H112.5
		z"/>
	<path class="st0" d="M77.5,91.7h-5.9c-1.4,0-2.2,1-2.2,3c0,1.8,0.7,2.9,2.2,2.9h22.8c1.4,0,2.2-1,2.2-2.9c0-1.9-0.7-3-2.2-3H77.5z"
		/>
	<path class="st0" d="M42.6,91.7h-5.9c-1.5,0-2.2,1-2.2,3c0,1.8,0.7,2.9,2.2,2.9h22.8c1.4,0,2.2-1,2.2-2.9c0-1.9-0.7-3-2.2-3H42.6z"
		/>
	<path class="st0" d="M9.6,91.7H3.7c-1.4,0-2.1,1-2.1,3c0,1.8,0.7,2.9,2.1,2.9h22.9c1.4,0,2.2-1,2.2-2.9c0-1.9-0.7-3-2.2-3H9.6z"/>
	<path class="st0" d="M1.6,21.2h6.2v8.5c2.1-3.2,4.3-5.4,6.6-6.9c2.9-1.9,6.3-2.9,9.8-2.9c2.3,0,4.5,0.5,6.7,1.4
		c2.1,0.9,3.8,2.2,5.1,3.8c1.3,1.5,2.5,3.8,3.4,6.6c2.1-3.8,4.7-6.8,7.7-8.8c3-1.9,6.4-3,10-3c3.4,0,6.3,0.8,8.8,2.6
		c2.5,1.7,4.4,4.1,5.7,7.2c1.2,3,1.8,7.7,1.8,13.8v26.8h-6.3V43.5c0-5.2-0.4-8.9-1.1-10.9c-0.7-2-2.1-3.6-3.8-4.8
		c-1.7-1.2-3.9-1.8-6.3-1.8c-3,0-5.8,1-8.2,2.7c-2.5,1.8-4.3,4.2-5.4,7.2c-1.1,3-1.7,8.1-1.7,15.1v19.2h-6.2V45.2c0-6-0.3-10-1-12.1
		c-0.7-2.1-2-3.8-3.8-5.1c-1.9-1.3-4.1-2-6.4-1.9c-2.8,0-5.5,0.8-8,2.6c-2.5,1.7-4.3,4.1-5.5,7.1c-1.2,3-1.7,7.5-1.7,13.7v20.8H1.6
		L1.6,21.2z M110.2,26.3c-5.2,0-9.6,1.9-13.3,5.9c-3.7,3.9-5.6,8.7-5.6,14.3c0,3.6,0.9,6.9,2.5,10.1c1.7,3.1,4,5.5,6.9,7.2
		c2.9,1.7,6,2.5,9.5,2.5c3.4,0,6.6-0.9,9.4-2.5c2.9-1.7,5.3-4.2,6.9-7.2c1.7-3.2,2.5-6.5,2.5-10.1c0-5.6-1.9-10.4-5.6-14.3
		C119.8,28.2,115.3,26.3,110.2,26.3L110.2,26.3z M110.2,20c7.4,0,13.6,2.8,18.5,8.3c4.5,5.1,6.7,11,6.7,18c0,6.9-2.4,13-7.1,18.2
		c-4.7,5.2-10.7,7.9-18.1,7.9c-7.4,0-13.5-2.6-18.1-7.9C87.4,59.5,84.9,53,85,46.3c0-6.9,2.2-12.9,6.7-18
		C96.5,22.8,102.7,20,110.2,20L110.2,20z M170.6,26.4c-3.5,0-6.7,0.9-9.6,2.6c-3,1.8-5.2,4.2-7,7.4c-1.7,3.1-2.6,6.5-2.6,9.9
		c0,3.5,0.9,6.9,2.6,10c1.8,3.2,4.1,5.7,7,7.5c3,1.7,6.1,2.7,9.5,2.7c3.4,0,6.7-0.9,9.7-2.7c3-1.7,5.4-4.1,7-7.1
		c1.6-3,2.4-6.4,2.4-10.1c0-5.7-1.8-10.5-5.6-14.3C180.7,28.4,175.8,26.3,170.6,26.4z M195.5,2.5V71h-6.1v-8.5
		c-2.4,3-5.4,5.5-8.7,7.3c-3.3,1.6-7,2.5-10.7,2.5c-6.8,0-12.7-2.5-17.6-7.7c-4.8-5.1-7.3-11.2-7.3-18.5c0-7.1,2.5-13.2,7.4-18.3
		c4.9-5.1,10.8-7.6,17.7-7.6c4,0,7.6,0.9,10.8,2.6c3.3,1.7,6.1,4.3,8.5,7.8V2.5L195.5,2.5z M250.6,41.1c-0.8-3.4-2.1-6.1-3.7-8.2
		c-1.7-2.1-3.9-3.8-6.4-4.9c-2.6-1.3-5.4-1.9-8.3-1.9c-4.8,0-8.9,1.6-12.4,4.7c-2.5,2.3-4.4,5.7-5.7,10.2H250.6z M250.6,54.5
		l5.3,2.9c-1.5,3.1-3.5,5.9-6,8.4c-2.2,2.1-4.9,3.8-7.7,4.9c-2.8,1.1-6.1,1.7-9.7,1.7c-7.9,0-14.2-2.7-18.7-8
		c-4.5-5.4-6.7-11.3-6.7-18c0-6.4,1.8-12,5.7-16.9c4.8-6.3,11.3-9.5,19.4-9.5c8.3,0,14.9,3.2,19.9,9.6c3.6,4.6,5.3,10.2,5.4,17h-44
		c0.2,5.8,1.9,10.5,5.5,14.2c3.3,3.6,8,5.6,13,5.6c2.5,0,4.9-0.5,7.2-1.4c2.4-0.9,4.3-2.1,6-3.5C246.9,60.1,248.7,57.8,250.6,54.5
		L250.6,54.5z M267.2,21.2h6.5v7.2c1.9-2.8,4-4.9,6.2-6.4c2.2-1.4,4.4-2.1,6.8-2.1c1.8,0,3.7,0.6,5.7,1.6L289,27
		c-1-0.5-2.2-0.8-3.3-0.8c-2.2,0-4.2,0.8-6.2,2.6c-2,1.7-3.5,4.4-4.6,8.1c-0.8,2.8-1.2,8.5-1.2,17v16.6h-6.5L267.2,21.2z
		 M300.2,21.2h6V30c2.4-3.4,5.1-5.9,8-7.5c2.9-1.7,6.2-2.5,9.5-2.5c3.5,0,6.6,0.9,9.3,2.8c2.7,1.9,4.7,4.4,6,7.5
		c1.3,3.2,1.9,8.1,1.9,14.8v25.3h-6V46.9c0-5.7-0.3-9.5-0.7-11.4c-0.7-3.2-2-5.7-4-7.3c-2-1.6-4.5-2.4-7.7-2.4
		c-3.6,0-6.9,1.3-9.7,3.8c-2.9,2.6-4.8,5.7-5.7,9.4c-0.6,2.5-0.9,7-0.9,13.4v18.1h-6L300.2,21.2z M378.1,26.1
		c-3.5,0-6.7,0.9-9.6,2.6c-3,1.8-5.4,4.4-7,7.4c-1.7,3.1-2.6,6.5-2.6,10c0,3.6,0.9,6.9,2.6,10.1c1.7,3.2,4.1,5.7,7,7.5
		c3,1.7,6.1,2.7,9.5,2.7c3.4,0,6.7-0.9,9.7-2.7c3-1.7,5.4-4.2,7.1-7.2c1.6-3,2.4-6.4,2.4-10.2c0-5.8-1.8-10.6-5.5-14.4
		C388.2,28.2,383.2,26,378.1,26.1L378.1,26.1z M402.9,21.2V71h-6.1v-8.6c-2.6,3.3-5.6,5.7-8.7,7.4c-3.3,1.6-7,2.5-10.7,2.5
		c-6.8,0-12.7-2.5-17.5-7.7c-4.8-5.1-7.3-11.3-7.3-18.6c0-7.1,2.5-13.3,7.4-18.4c4.9-5.1,10.8-7.6,17.7-7.6c4,0,7.6,0.9,10.8,2.6
		c3.3,1.7,6.1,4.4,8.5,7.8v-9.2L402.9,21.2z M413.5,25.5h0.8c0.4,0,0.7,0,0.8-0.1c0.2-0.1,0.3-0.3,0.3-0.5c0-0.1-0.1-0.2-0.1-0.3
		c-0.1-0.1-0.2-0.2-0.3-0.3c-0.1,0-0.4,0-0.7,0h-0.7V25.5z M412.8,27.9v-4.2h1.4c0.5,0,0.9,0,1.1,0.1c0.2,0.1,0.4,0.3,0.5,0.5
		c0.1,0.2,0.2,0.4,0.2,0.6c0,0.3-0.1,0.6-0.3,0.8c-0.3,0.2-0.6,0.4-0.9,0.4c0.2,0.1,0.3,0.1,0.4,0.2c0.1,0.2,0.3,0.5,0.6,0.9
		l0.5,0.8h-0.9l-0.3-0.7c-0.3-0.5-0.5-0.9-0.7-1c-0.2,0-0.3-0.1-0.5-0.1h-0.4v1.8L412.8,27.9z M414.5,22.4c-0.6,0-1.1,0.2-1.6,0.5
		c-0.5,0.3-0.9,0.7-1.2,1.2c-0.3,0.5-0.5,1.1-0.5,1.7c0,0.6,0.2,1.1,0.5,1.6c0.2,0.5,0.7,1,1.2,1.2c0.5,0.3,1.1,0.5,1.6,0.5
		c0.6,0,1.2-0.1,1.6-0.5c0.5-0.3,0.9-0.7,1.2-1.2c0.3-0.5,0.4-1,0.5-1.6c0-0.6-0.2-1.2-0.5-1.7c-0.3-0.5-0.7-0.9-1.2-1.2
		C415.7,22.6,415.1,22.4,414.5,22.4z M414.5,21.9c0.7,0,1.3,0.1,1.9,0.4c0.6,0.3,1.1,0.8,1.5,1.5c0.4,0.6,0.5,1.3,0.5,2
		c0,0.7-0.1,1.3-0.5,1.9c-0.4,0.6-0.9,1.1-1.5,1.5c-1.2,0.6-2.7,0.6-3.9,0c-0.6-0.4-1.1-0.9-1.4-1.5c-0.3-0.6-0.5-1.3-0.5-1.9
		c0-0.7,0.1-1.4,0.5-2c0.4-0.6,0.9-1.1,1.4-1.5C413.2,22,413.8,21.9,414.5,21.9L414.5,21.9z"/>
</g>
</svg>
