<?xml version="1.0" encoding="utf-8"?>
<!-- Generator: Adobe Illustrator 25.0.0, SVG Export Plug-In . SVG Version: 6.00 Build 0)  -->
<svg version="1.1" id="Capa_1" xmlns="http://www.w3.org/2000/svg" xmlns:xlink="http://www.w3.org/1999/xlink" x="0px" y="0px"
	 viewBox="0 0 240 100" style="enable-background:new 0 0 240 100;" xml:space="preserve">
<style type="text/css">
	.st0{fill:#FFFFFF;}
</style>
<g>
	<path class="st0" d="M8.5,40.5c2.7-10,14.1-12.4,24.6-12.7c8.6-0.2,18.3,0.9,18.3,0.9l-4.5,16.5c0,0-9.6-1.1-18.3-0.9
		C18.1,44.7,6.7,47,4,57L8.5,40.5z"/>
	<g>
		<path class="st0" d="M153.8,22.9c-13.8,0-17.4,13.4-19.3,20.6l-14.8,54h8.6l13.1-47.9h8.9l-6,21.8h8.6l7.1-26.1h-17.6
			c0.9-3.3,1.9-6.8,2.6-9.7c1.4-5.3,3.8-9.1,7.2-9c3.8,0.1,1.9,2.6,1.3,4.5c-0.7,2.6,1.2,5.3,4.6,5.3
			C165.8,36.5,167.6,22.9,153.8,22.9L153.8,22.9z M104.9,32.4L104.9,32.4L94.2,71.4h9l4-14.5h7.8c8.6,0,14.3-4.7,15.9-11.4
			c1.4-6.2-2.2-13.2-11.8-13.2L104.9,32.4z M112.6,37h3.5c3.6,0,6.5,2.9,5.8,7.9c-0.6,4.7-5.7,7.5-10.1,7.5h-3.3L112.6,37z
			 M197.8,44.5c-7.6,0-13,6.5-14.3,13c-1.3,6.2,2.3,14.5,12.2,14.5c7,0,10.5-3.1,10.5-3.1l-1.6-4c0,0-2.9,2.4-7,2.4
			c-4.1,0-6.7-3.2-6.1-8.4h16.7C209.4,55.9,210,44.5,197.8,44.5L197.8,44.5z M231.2,44.9c-5.6,0-8.9,5.8-8.9,5.8l1.5-5.4h-8.6
			l-7.1,26.1h8.6c0,0,2.1-7.6,3.1-11.4c1.6-6,5-9.7,6.6-9.8c1.8-0.2,1.7,4.3,5.3,4.3C237,54.4,238.2,44.9,231.2,44.9L231.2,44.9z
			 M163.4,45.3l-1.2,4.3h10.9l-17.2,21.8h24.2l1.2-4.3H169l17.2-21.8L163.4,45.3z M197.8,48.8L197.8,48.8c4.7,0,3.6,6.2,3.6,6.2
			l-9.4,0C192,55,193.5,48.8,197.8,48.8z M74,71.5c-30.9-1.9-66.8-17.9-65.5-31L4.2,56.1C3,69.5,36.2,85.4,69.5,88L74,71.5z"/>
		<path class="st0" d="M85.2,50c-2.7,10-14.1,12.4-24.6,12.7c-8.6,0.2-18.3-0.9-18.3-0.9l4.5-16.5c0,0,9.6,1.1,18.3,0.9
			c10.5-0.3,21.9-2.7,24.6-12.7L85.2,50z"/>
	</g>
	<path class="st0" d="M19.7,19C50.6,21,86.5,36.9,85.2,50l4.3-15.6C90.8,21,57.5,5.2,24.3,2.5L19.7,19z"/>
</g>
</svg>
